<?xml version="1.0" encoding="utf-8" standalone="no"?><!DOCTYPE svg PUBLIC "-//W3C//DTD SVG 20010904//EN" "http://www.w3.org/TR/2001/REC-SVG-20010904/DTD/svg10.dtd"><svg xmlns="http://www.w3.org/2000/svg" width="530" height="411" xmlns:xlink="http://www.w3.org/1999/xlink"><source><![CDATA[Router->Handler: request\ndata
Handler->Service: request\nvalidation
Service->Repository: business\nlogic
Repository->DB: get data\nfrom\ndatabase]]></source><desc></desc><defs><marker viewBox="0 0 5 5" markerWidth="5" markerHeight="5" orient="auto" refX="5" refY="2.5" id="markerArrowBlock"><path d="M 0 0 L 5 2.5 L 0 5 z"></path></marker><marker viewBox="0 0 9.6 16" markerWidth="4" markerHeight="16" orient="auto" refX="9.6" refY="8" id="markerArrowOpen"><path d="M 9.6,8 1.92,16 0,13.7 5.76,8 0,2.286 1.92,0 9.6,8 z"></path></marker></defs><g class="title"></g><g class="actor"><path d="M10,20C44.3,23.3 55.0,16.7 91.3,20.0C89.6,30.2 93.0,26.8 91.3,62.5C68.6,59.2 78.3,65.8 10.0,62.5C11.7,46.7 8.3,35.8 10.0,20.0" stroke="#000000" fill="#ffffff" style="stroke-width: 2;"></path><text x="20" y="44" style="font-size: 16px; font-family: danielbd;"><tspan x="20">Router</tspan></text></g><g class="actor"><path d="M10,348.50000381469727C62.1,345.2 78.3,351.8 91.3,348.5C89.6,365.2 93.0,383.0 91.3,391.0C29.5,394.3 67.7,387.7 10.0,391.0C8.3,378.2 11.7,355.3 10.0,348.5" stroke="#000000" fill="#ffffff" style="stroke-width: 2;"></path><text x="20" y="372.50000381469727" style="font-size: 16px; font-family: danielbd;"><tspan x="20">Router</tspan></text></g><path d="M50.6,62.5C39.2,112.4 62.1,131.1 50.6,348.5" stroke="#000000" fill="none" style="stroke-width: 2;"></path><g class="actor"><path d="M111.2734375,20C134.8,16.6 176.3,23.4 196.8,20.0C198.5,39.6 195.1,33.8 196.8,62.5C135.9,59.1 150.2,65.9 111.3,62.5C113.0,30.2 109.6,35.0 111.3,20.0" stroke="#000000" fill="#ffffff" style="stroke-width: 2;"></path><text x="121.2734375" y="44" style="font-size: 16px; font-family: danielbd;"><tspan x="121.2734375">Handler</tspan></text></g><g class="actor"><path d="M111.2734375,348.50000381469727C135.6,345.1 135.7,351.9 196.8,348.5C198.5,359.3 195.1,380.8 196.8,391.0C131.8,387.6 153.6,394.4 111.3,391.0C113.0,355.3 109.6,361.5 111.3,348.5" stroke="#000000" fill="#ffffff" style="stroke-width: 2;"></path><text x="121.2734375" y="372.50000381469727" style="font-size: 16px; font-family: danielbd;"><tspan x="121.2734375">Handler</tspan></text></g><path d="M154.0,62.5C142.6,119.9 165.5,184.3 154.0,348.5" stroke="#000000" fill="none" style="stroke-width: 2;"></path><g class="actor"><path d="M216.8125,20C272.2,23.1 239.8,16.9 295.5,20.0C297.2,37.3 293.8,45.2 295.5,62.5C276.6,59.4 238.1,65.6 216.8,62.5C218.5,52.6 215.1,48.8 216.8,20.0" stroke="#000000" fill="#ffffff" style="stroke-width: 2;"></path><text x="226.84375" y="44" style="font-size: 16px; font-family: danielbd;"><tspan x="226.8125">Service</tspan></text></g><g class="actor"><path d="M216.8125,348.50000381469727C235.7,351.6 229.4,345.4 295.5,348.5C293.8,355.3 297.2,358.7 295.5,391.0C243.4,394.1 265.2,387.9 216.8,391.0C215.1,384.2 218.5,355.3 216.8,348.5" stroke="#000000" fill="#ffffff" style="stroke-width: 2;"></path><text x="226.84375" y="372.50000381469727" style="font-size: 16px; font-family: danielbd;"><tspan x="226.8125">Service</tspan></text></g><path d="M256.1,62.5C267.6,232.3 244.7,119.1 256.1,348.5" stroke="#000000" fill="none" style="stroke-width: 2;"></path><g class="actor"><path d="M315.453125,20C399.3,15.5 409.7,24.5 427.7,20.0C426.0,30.2 429.4,41.6 427.7,62.5C367.3,58.0 342.4,67.0 315.5,62.5C313.8,55.7 317.2,50.8 315.5,20.0" stroke="#000000" fill="#ffffff" style="stroke-width: 2;"></path><text x="325.453125" y="44" style="font-size: 16px; font-family: danielbd;"><tspan x="325.453125">Repository</tspan></text></g><g class="actor"><path d="M315.453125,348.50000381469727C333.4,344.0 409.7,353.0 427.7,348.5C426.0,380.8 429.4,368.0 427.7,391.0C354.7,395.5 381.7,386.5 315.5,391.0C317.2,362.5 313.8,384.2 315.5,348.5" stroke="#000000" fill="#ffffff" style="stroke-width: 2;"></path><text x="325.453125" y="372.50000381469727" style="font-size: 16px; font-family: danielbd;"><tspan x="325.453125">Repository</tspan></text></g><path d="M371.6,62.5C383.0,302.7 360.1,223.0 371.6,348.5" stroke="#000000" fill="none" style="stroke-width: 2;"></path><g class="actor"><path d="M447.7109375,20C488.1,17.9 461.1,22.1 500.9,20.0C499.2,37.4 502.6,30.2 500.9,62.5C477.4,60.4 492.4,64.6 447.7,62.5C446.0,36.5 449.4,26.8 447.7,20.0" stroke="#000000" fill="#ffffff" style="stroke-width: 2;"></path><text x="457.7109375" y="44" style="font-size: 16px; font-family: danielbd;"><tspan x="457.7109375">DB</tspan></text></g><g class="actor"><path d="M447.7109375,348.50000381469727C475.2,346.4 460.5,350.6 500.9,348.5C499.2,369.2 502.6,365.0 500.9,391.0C486.2,393.1 460.5,388.9 447.7,391.0C449.4,370.6 446.0,380.8 447.7,348.5" stroke="#000000" fill="#ffffff" style="stroke-width: 2;"></path><text x="457.7109375" y="372.50000381469727" style="font-size: 16px; font-family: danielbd;"><tspan x="457.7109375">DB</tspan></text></g><path d="M474.3,62.5C462.9,302.7 485.7,189.3 474.3,348.5" stroke="#000000" fill="none" style="stroke-width: 2;"></path><g class="signal"><text x="69.140625" y="80.64999961853027" style="font-size: 16px; font-family: danielbd;"><tspan x="69.140625">request</tspan><tspan dy="1.2em" x="69.140625">data</tspan></text><path d="M50.6,124.2C125.3,120.1 75.5,128.3 154.0,124.2" stroke="#000000" fill="none" style="stroke-width: 2; marker-end: url(&quot;#markerArrowBlock&quot;);"></path></g><g class="signal"><text x="166.326171875" y="142.35000038146973" style="font-size: 16px; font-family: danielbd;"><tspan x="166.326171875">request</tspan><tspan dy="1.2em" x="166.326171875">validation</tspan></text><path d="M154.0,185.9C225.8,190.0 231.6,181.8 256.1,185.9" stroke="#000000" fill="none" style="stroke-width: 2; marker-end: url(&quot;#markerArrowBlock&quot;);"></path></g><g class="signal"><text x="280.904296875" y="204.05000114440918" style="font-size: 16px; font-family: danielbd;"><tspan x="280.904296875">business</tspan><tspan dy="1.2em" x="280.904296875">logic</tspan></text><path d="M256.1,247.6C353.1,252.2 343.9,243.0 371.6,247.6" stroke="#000000" fill="none" style="stroke-width: 2; marker-end: url(&quot;#markerArrowBlock&quot;);"></path></g><g class="signal"><text x="388.552734375" y="256.1500015258789" style="font-size: 16px; font-family: danielbd;"><tspan x="384.482421875">get data</tspan><tspan dy="1.2em" x="384.482421875">from</tspan><tspan dy="1.2em" x="384.482421875">database</tspan></text><path d="M371.6,328.5C406.8,324.4 415.8,332.6 474.3,328.5" stroke="#000000" fill="none" style="stroke-width: 2; marker-end: url(&quot;#markerArrowBlock&quot;);"></path></g></svg>